<?xml version="1.0" encoding="UTF-8"?>
<!DOCTYPE svg PUBLIC "-//W3C//DTD SVG 1.1//EN" "http://www.w3.org/Graphics/SVG/1.1/DTD/svg11.dtd">
<!-- Creator: CorelDRAW -->
<svg xmlns="http://www.w3.org/2000/svg" xml:space="preserve" width="79.8301mm" height="22.8996mm" version="1.1" style="shape-rendering:geometricPrecision; text-rendering:geometricPrecision; image-rendering:optimizeQuality; fill-rule:evenodd; clip-rule:evenodd"
viewBox="0 0 5255.96 1507.7"
 xmlns:xlink="http://www.w3.org/1999/xlink"
 xmlns:xodm="http://www.corel.com/coreldraw/odm/2003">
 <defs>
  <style type="text/css">
   <![CDATA[
    .fil1 {fill:#898121}
    .fil2 {fill:#E5C287}
    .fil0 {fill:#FDA403}
    .fil4 {fill:#606062;fill-rule:nonzero}
    .fil3 {fill:#4B4B4D;fill-rule:nonzero}
   ]]>
  </style>
 </defs>
 <g id="Layer_x0020_1">
  <metadata id="CorelCorpID_0Corel-Layer"/>
  <g id="_1391422524496">
   <g>
    <path class="fil0" d="M795.68 1507.7c299.63,0 544.78,-245.15 544.78,-544.78l0 -329.16 -89.51 75.77c-46.84,39.66 -107.15,55.47 -168.75,54.7l0 118.12c0,184.18 -150.68,334.86 -334.86,334.86l-339.75 0 -258.83 262.63c-5.37,5.45 -10.91,10.23 -16.59,14.38 22.69,8.7 47.28,13.47 72.93,13.47l590.58 0z"/>
    <path class="fil0" d="M258.26 416.55c0,-69.34 56.73,-126.06 126.06,-126.06l363.02 0c27.98,0 55.18,3.48 81.19,10.02 10.84,-16.04 23.82,-30.75 39.13,-43.71l209.88 -177.68c-82.36,-50.16 -178.89,-79.11 -281.86,-79.11l-590.58 0c-112.8,0 -205.1,92.29 -205.1,205.1l0 965.36 258.26 -180.6 0 -573.32z"/>
    <path class="fil0" d="M1161.62 142.09l-153.97 130.35c-13.93,11.8 -15.68,32.84 -3.88,46.77 11.8,13.94 32.84,15.69 46.77,3.89l157.51 -133.34c-14.5,-16.8 -30.01,-32.73 -46.42,-47.66z"/>
    <path class="fil0" d="M1263.64 266.7l-151.94 128.63c-13.93,11.79 -15.68,32.84 -3.88,46.77 11.79,13.93 32.84,15.68 46.77,3.88l140.29 -118.77c-9.17,-20.88 -19.61,-41.08 -31.23,-60.51z"/>
    <path class="fil0" d="M1326.91 424.11l-111.17 94.11c-13.93,11.8 -15.68,32.85 -3.88,46.77 11.8,13.94 32.84,15.69 46.77,3.89l80.09 -67.81c-2.11,-26.2 -6.09,-51.91 -11.81,-76.97z"/>
   </g>
   <path class="fil1" d="M898.15 975.5c2.32,-2.12 4.63,-4.29 6.9,-6.5 108.82,-105.99 116.09,-276.93 20.25,-391.56l9.79 -9.53 17.68 18.15c18.39,-17.91 18.78,-47.36 0.86,-65.77 -17.93,-18.4 -47.38,-18.79 -65.77,-0.87l15.44 15.85 -9.86 9.61c-112.09,-98.03 -282.53,-94.99 -391.06,10.71 -1.65,1.61 -3.27,3.23 -4.87,4.87l87.27 90.41c1.69,-1.81 3.43,-3.59 5.22,-5.33 64.48,-62.8 167.67,-61.45 230.48,3.03 62.81,64.48 61.45,167.68 -3.03,230.5 -2.14,2.09 -4.33,4.1 -6.55,6.04l87.26 90.4z"/>
   <path class="fil2" d="M415.92 783.39l6.98 249.87 253.69 16.31 -0.03 -0.02c70.26,6.6 142.53,-12.44 201.6,-57.39l-88.31 -91.47c-63.62,39.67 -148.43,31.23 -202.9,-24.68 -54.8,-56.28 -60.75,-142.03 -18.51,-204.69l-88.31 -91.48c-47.95,58.62 -69.41,131.84 -64.18,203.57l-0.02 -0.03z"/>
  </g>
  <g id="_1391422527232">
   <path class="fil3" d="M1710.28 816.59l0 -538.5 190.87 0c191.25,0 286.88,87.42 286.88,262.52 0,83.83 -26.15,150.75 -78.32,200.86 -52.17,50.12 -121.64,75.12 -208.55,75.12l-190.87 0zm121.39 -439.8l0 341.36 60.12 0c52.55,0 93.7,-15.77 123.69,-47.3 29.87,-31.54 44.86,-74.48 44.86,-128.83 0,-51.28 -14.87,-91.65 -44.47,-121.01 -29.74,-29.48 -71.27,-44.22 -124.85,-44.22l-59.35 0z"/>
   <polygon id="_1" class="fil3" points="2600.39,816.59 2277.37,816.59 2277.37,278.09 2587.96,278.09 2587.96,376.79 2398.77,376.79 2398.77,496.65 2574.89,496.65 2574.89,594.96 2398.77,594.96 2398.77,718.15 2600.39,718.15 "/>
   <polygon id="_2" class="fil3" points="3007.38,816.59 2686.66,816.59 2686.66,278.09 2808.06,278.09 2808.06,718.15 3007.38,718.15 "/>
   <polygon id="_3" class="fil3" points="3201.2,816.59 3079.8,816.59 3079.8,278.09 3201.2,278.09 "/>
   <polygon id="_4" class="fil3" points="3644.2,816.59 3323.48,816.59 3323.48,278.09 3444.87,278.09 3444.87,718.15 3644.2,718.15 "/>
   <path id="_5" class="fil3" d="M3925.17 825.95c-77.16,0 -139.97,-25.12 -188.56,-75.24 -48.58,-50.25 -72.81,-115.62 -72.81,-196.25 0,-85.12 24.61,-153.95 73.96,-206.51 49.35,-52.56 114.59,-78.96 195.99,-78.96 76.91,0 139.08,25.25 186.51,75.5 47.42,50.37 71.14,116.77 71.14,199.07 0,84.6 -24.61,152.92 -73.83,204.71 -49.1,51.78 -113.32,77.68 -192.41,77.68zm5.26 -452.49c-42.56,0 -76.4,15.89 -101.39,47.94 -25,31.91 -37.56,74.09 -37.56,126.64 0,53.32 12.56,95.5 37.56,126.65 24.99,31.02 57.81,46.53 98.31,46.53 41.92,0 74.99,-15.12 99.6,-45.25 24.49,-30.25 36.79,-72.03 36.79,-125.61 0,-55.89 -11.92,-99.35 -35.64,-130.37 -23.84,-31.02 -56.4,-46.53 -97.67,-46.53z"/>
   <path id="_6" class="fil3" d="M4728.5 816.59l-153.31 0 -156.9 -233.93c-3.08,-4.49 -7.82,-14.48 -14.36,-29.74l-1.79 0 0 263.67 -121.39 0 0 -538.5 121.39 0 0 254.57 1.79 0c3.07,-7.05 8.08,-17.05 15.12,-30l148.7 -224.58 144.59 0 -187.79 256.88 203.94 281.62z"/>
   <path id="_7" class="fil3" d="M5253.55 816.59l-132.16 0 -38.33 -119.85 -191.51 0 -37.94 119.85 -131.51 0 196.12 -538.5 143.83 0 191.51 538.5zm-198.3 -212.91l-57.81 -181c-4.23,-13.58 -7.3,-29.74 -9.1,-48.45l-2.95 0c-1.28,15.77 -4.36,31.41 -9.36,46.92l-58.58 182.53 137.8 0z"/>
   <polygon class="fil4" points="1806.78,977.58 1728.34,977.58 1728.34,1050.99 1800.9,1050.99 1800.9,1073.37 1728.34,1073.37 1728.34,1167.35 1704.82,1167.35 1704.82,955.1 1806.78,955.1 "/>
   <path id="_1_0" class="fil4" d="M1853.53 977.27c-4.06,0 -7.6,-1.46 -10.46,-4.44 -2.92,-2.93 -4.36,-6.67 -4.36,-11.22 0,-4.54 1.44,-8.34 4.36,-11.32 2.86,-3.03 6.4,-4.54 10.46,-4.54 4.21,0 7.8,1.51 10.76,4.54 2.92,2.98 4.4,6.77 4.4,11.32 0,4.35 -1.48,8.04 -4.4,11.07 -2.96,3.08 -6.54,4.6 -10.76,4.6zm11.24 190.08l-22.99 0 0 -151.58 22.99 0 0 151.58z"/>
   <path id="_2_1" class="fil4" d="M2030.3 1167.35l-22.99 0 0 -86.45c0,-32.19 -11.09,-48.25 -33.31,-48.25 -11.47,0 -20.98,4.55 -28.49,13.69 -7.56,9.15 -11.28,20.66 -11.28,34.56l0 86.45 -22.99 0 0 -151.58 22.99 0 0 25.16 0.57 0c10.8,-19.15 26.47,-28.7 47.04,-28.7 15.68,0 27.67,5.35 35.99,16.06 8.32,10.66 12.47,26.17 12.47,46.38l0 92.66z"/>
   <path id="_3_2" class="fil4" d="M2195.98 1167.35l-23 0 0 -25.77 -0.53 0c-10.65,19.55 -27.1,29.31 -49.33,29.31 -17.97,0 -32.41,-6.77 -43.16,-20.36 -10.8,-13.54 -16.21,-32.04 -16.21,-55.43 0,-25.06 5.98,-45.12 17.93,-60.22 11.96,-15.11 27.87,-22.64 47.75,-22.64 19.69,0 34.03,8.18 43.02,24.55l0.53 0 0 -93.82 23 0 0 224.38zm-23 -68.51l0 -22.39c0,-12.23 -3.82,-22.58 -11.47,-31.07 -7.65,-8.49 -17.36,-12.73 -29.11,-12.73 -14,0 -25.05,5.41 -33.07,16.27 -8.03,10.86 -12.05,25.87 -12.05,45.02 0,17.48 3.87,31.22 11.57,41.38 7.7,10.1 18.07,15.16 31.02,15.16 12.81,0 23.18,-4.9 31.16,-14.66 7.99,-9.75 11.95,-22.13 11.95,-36.98z"/>
   <path id="_4_3" class="fil4" d="M2435.17 1015.78l-65.97 175.83c-11.76,31.43 -28.3,47.09 -49.56,47.09 -5.98,0 -10.95,-0.66 -14.97,-1.92l0 -21.77c4.92,1.76 9.47,2.67 13.58,2.67 11.57,0 20.27,-7.28 26.05,-21.88l11.48 -28.75 -56.02 -151.27 25.47 0 38.81 116.66c0.48,1.47 1.44,5.31 2.92,11.52l0.86 0c0.47,-2.38 1.38,-6.12 2.77,-11.27l40.77 -116.92 23.81 0z"/>
   <path id="_5_4" class="fil4" d="M2519.74 1170.89c-21.18,0 -38.1,-7.07 -50.77,-21.22 -12.62,-14.15 -18.98,-32.94 -18.98,-56.33 0,-25.47 6.6,-45.32 19.75,-59.67 13.19,-14.3 30.98,-21.42 53.4,-21.42 21.36,0 38.05,6.92 50.04,20.86 12,13.9 17.97,33.2 17.97,57.85 0,24.2 -6.45,43.55 -19.36,58.1 -12.96,14.55 -30.31,21.83 -52.05,21.83zm1.67 -138.24c-14.72,0 -26.39,5.31 -34.99,15.91 -8.61,10.61 -12.9,25.22 -12.9,43.91 0,17.93 4.35,32.08 13.05,42.44 8.7,10.36 20.31,15.56 34.84,15.56 14.87,0 26.29,-5.1 34.28,-15.26 7.98,-10.15 11.95,-24.6 11.95,-43.35 0,-18.95 -3.97,-33.55 -11.95,-43.8 -7.99,-10.31 -19.41,-15.41 -34.28,-15.41z"/>
   <path id="_6_5" class="fil4" d="M2743.83 1167.35l-22.95 0 0 -24 -0.57 0c-9.51,18.39 -24.27,27.53 -44.26,27.53 -34.18,0 -51.25,-21.47 -51.25,-64.52l0 -90.59 22.81 0 0 86.75c0,31.98 11.61,47.95 34.75,47.95 11.19,0 20.41,-4.35 27.67,-13.09 7.22,-8.74 10.85,-20.16 10.85,-34.3l0 -87.31 22.95 0 0 151.58z"/>
   <path id="_7_6" class="fil4" d="M2865 1040.33c-4.01,-3.24 -9.8,-4.85 -17.35,-4.85 -9.85,0 -18.02,4.85 -24.62,14.65 -6.55,9.75 -9.85,23.09 -9.85,39.96l0 77.26 -22.99 0 0 -151.58 22.99 0 0 31.23 0.58 0c3.25,-10.67 8.22,-18.95 14.96,-24.96 6.74,-5.97 14.25,-8.95 22.56,-8.95 5.97,0 10.51,0.71 13.71,2.07l0 25.16z"/>
   <path id="_8" class="fil4" d="M3039.38 964.24c-4.5,-2.63 -9.57,-4 -15.3,-4 -16.01,0 -24.04,10.71 -24.04,32.14l0 23.39 33.6 0 0 20.71 -33.6 0 0 130.86 -22.85 0 0 -130.86 -24.53 0 0 -20.71 24.53 0 0 -24.56c0,-15.91 4.35,-28.44 13,-37.69 8.7,-9.25 19.55,-13.85 32.5,-13.85 7.03,0 12.57,0.91 16.68,2.68l0 21.88z"/>
   <path id="_9" class="fil4" d="M3160.93 1167.35l-22.99 0 0 -23.7 -0.52 0c-9.99,18.19 -24.72,27.23 -44.12,27.23 -14.29,0 -25.49,-3.99 -33.56,-11.98 -8.07,-7.98 -12.09,-18.59 -12.09,-31.83 0,-28.3 15.77,-44.82 47.32,-49.41l42.97 -6.37c0,-25.77 -9.84,-38.65 -29.54,-38.65 -17.26,0 -32.84,6.22 -46.75,18.65l0 -24.86c14.1,-9.49 30.31,-14.19 48.71,-14.19 33.7,0 50.57,18.84 50.57,56.54l0 98.57zm-22.99 -76.7l-34.55 5.05c-10.66,1.57 -18.7,4.35 -24.1,8.39 -5.4,3.99 -8.12,11.07 -8.12,21.22 0,7.38 2.49,13.44 7.5,18.14 4.97,4.7 11.62,7.03 19.94,7.03 11.38,0 20.8,-4.25 28.21,-12.63 7.45,-8.43 11.13,-19.15 11.13,-32.08l0 -15.1z"/>
   <path id="_10" class="fil4" d="M3316.97 1015.78l-57.17 151.58 -22.51 0 -54.35 -151.58 25.19 0 36.42 110.14c2.73,8.09 4.4,15.11 5.07,21.17l0.52 0c0.96,-7.63 2.44,-14.5 4.5,-20.61l38.1 -110.7 24.24 0z"/>
   <path id="_11" class="fil4" d="M3401.53 1170.89c-21.18,0 -38.09,-7.07 -50.77,-21.22 -12.61,-14.15 -18.97,-32.94 -18.97,-56.33 0,-25.47 6.6,-45.32 19.75,-59.67 13.19,-14.3 30.98,-21.42 53.4,-21.42 21.36,0 38.04,6.92 50.04,20.86 12,13.9 17.98,33.2 17.98,57.85 0,24.2 -6.45,43.55 -19.36,58.1 -12.96,14.55 -30.31,21.83 -52.05,21.83zm1.67 -138.24c-14.72,0 -26.38,5.31 -34.99,15.91 -8.6,10.61 -12.9,25.22 -12.9,43.91 0,17.93 4.35,32.08 13.05,42.44 8.7,10.36 20.31,15.56 34.84,15.56 14.87,0 26.3,-5.1 34.28,-15.26 7.98,-10.15 11.94,-24.6 11.94,-43.35 0,-18.95 -3.96,-33.55 -11.94,-43.8 -7.99,-10.31 -19.41,-15.41 -34.28,-15.41z"/>
   <path id="_12" class="fil4" d="M3584.46 1040.33c-4.02,-3.24 -9.8,-4.85 -17.35,-4.85 -9.85,0 -18.02,4.85 -24.62,14.65 -6.56,9.75 -9.85,23.09 -9.85,39.96l0 77.26 -22.99 0 0 -151.58 22.99 0 0 31.23 0.57 0c3.25,-10.67 8.22,-18.95 14.97,-24.96 6.74,-5.97 14.24,-8.95 22.56,-8.95 5.98,0 10.51,0.71 13.72,2.07l0 25.16z"/>
   <path id="_13" class="fil4" d="M3621.12 977.27c-4.06,0 -7.6,-1.46 -10.46,-4.44 -2.92,-2.93 -4.36,-6.67 -4.36,-11.22 0,-4.54 1.44,-8.34 4.36,-11.32 2.86,-3.03 6.4,-4.54 10.46,-4.54 4.21,0 7.8,1.51 10.76,4.54 2.92,2.98 4.4,6.77 4.4,11.32 0,4.35 -1.48,8.04 -4.4,11.07 -2.96,3.08 -6.54,4.6 -10.76,4.6zm11.24 190.08l-22.99 0 0 -151.58 22.99 0 0 151.58z"/>
   <path id="_14" class="fil4" d="M3745.36 1165.88c-5.4,3.13 -12.57,4.7 -21.42,4.7 -25.14,0 -37.67,-14.8 -37.67,-44.41l0 -89.69 -24.66 0 0 -20.71 24.66 0 0 -36.98 22.95 -7.89 0 44.87 36.14 0 0 20.71 -36.14 0 0 85.44c0,10.16 1.63,17.38 4.92,21.73 3.25,4.35 8.65,6.52 16.25,6.52 5.78,0 10.75,-1.67 14.97,-5.06l0 20.77z"/>
   <path id="_15" class="fil4" d="M3891.24 1097.63l-101.25 0c0.38,16.87 4.69,29.91 12.91,39.11 8.22,9.15 19.5,13.74 33.89,13.74 16.16,0 30.98,-5.61 44.55,-16.87l0 22.79c-12.62,9.7 -29.31,14.5 -50,14.5 -20.27,0 -36.18,-6.87 -47.75,-20.61 -11.62,-13.79 -17.41,-33.14 -17.41,-58.1 0,-23.6 6.36,-42.8 18.98,-57.65 12.67,-14.85 28.39,-22.28 47.13,-22.28 18.78,0 33.27,6.41 43.55,19.25 10.27,12.78 15.39,30.62 15.39,53.4l0 12.73zm-23.52 -20.56c-0.1,-14 -3.31,-24.91 -9.57,-32.74 -6.31,-7.78 -15.05,-11.67 -26.29,-11.67 -10.8,0 -20.03,4.1 -27.57,12.28 -7.56,8.18 -12.24,18.9 -14.01,32.14l77.44 0z"/>
   <path id="_16" class="fil4" d="M4079.39 1040.33c-4.02,-3.24 -9.8,-4.85 -17.35,-4.85 -9.85,0 -18.02,4.85 -24.62,14.65 -6.56,9.75 -9.85,23.09 -9.85,39.96l0 77.26 -22.99 0 0 -151.58 22.99 0 0 31.23 0.57 0c3.25,-10.67 8.22,-18.95 14.97,-24.96 6.74,-5.97 14.24,-8.95 22.56,-8.95 5.98,0 10.51,0.71 13.72,2.07l0 25.16z"/>
   <path id="_17" class="fil4" d="M4219.54 1097.63l-101.24 0c0.38,16.87 4.68,29.91 12.9,39.11 8.22,9.15 19.5,13.74 33.89,13.74 16.16,0 30.97,-5.61 44.55,-16.87l0 22.79c-12.62,9.7 -29.3,14.5 -50,14.5 -20.27,0 -36.19,-6.87 -47.75,-20.61 -11.61,-13.79 -17.4,-33.14 -17.4,-58.1 0,-23.6 6.36,-42.8 18.97,-57.65 12.67,-14.85 28.4,-22.28 47.13,-22.28 18.78,0 33.28,6.41 43.55,19.25 10.27,12.78 15.39,30.62 15.39,53.4l0 12.73zm-23.52 -20.56c-0.09,-14 -3.31,-24.91 -9.56,-32.74 -6.31,-7.78 -15.06,-11.67 -26.3,-11.67 -10.8,0 -20.02,4.1 -27.57,12.28 -7.56,8.18 -12.24,18.9 -14.01,32.14l77.44 0z"/>
   <path id="_18" class="fil4" d="M4245.64 1161.89l0 -26.07c12.47,9.76 26.29,14.66 41.3,14.66 20.17,0 30.26,-7.12 30.26,-21.33 0,-4.04 -0.86,-7.47 -2.59,-10.25 -1.76,-2.83 -4.06,-5.31 -7.03,-7.48 -2.92,-2.17 -6.4,-4.14 -10.37,-5.86 -3.97,-1.72 -8.22,-3.54 -12.81,-5.41 -6.35,-2.68 -11.9,-5.36 -16.73,-8.09 -4.78,-2.68 -8.8,-5.76 -12.05,-9.15 -3.2,-3.44 -5.64,-7.28 -7.26,-11.62 -1.63,-4.35 -2.44,-9.45 -2.44,-15.26 0,-7.12 1.53,-13.39 4.58,-18.9 3.11,-5.46 7.22,-10.05 12.33,-13.74 5.17,-3.69 11,-6.52 17.59,-8.39 6.56,-1.87 13.39,-2.78 20.36,-2.78 12.43,0 23.52,2.27 33.32,6.77l0 24.6c-10.51,-7.32 -22.66,-10.96 -36.38,-10.96 -4.29,0 -8.17,0.51 -11.66,1.57 -3.44,1.01 -6.41,2.48 -8.89,4.35 -2.44,1.87 -4.35,4.14 -5.73,6.72 -1.34,2.63 -2.01,5.5 -2.01,8.69 0,3.94 0.68,7.22 2.01,9.9 1.38,2.67 3.34,5.05 5.97,7.12 2.58,2.07 5.78,3.94 9.51,5.6 3.73,1.67 7.98,3.49 12.76,5.46 6.31,2.58 12.05,5.21 17.07,7.93 5.02,2.73 9.32,5.76 12.9,9.2 3.54,3.38 6.27,7.33 8.18,11.77 1.92,4.44 2.86,9.7 2.86,15.81 0,7.53 -1.57,14.04 -4.68,19.55 -3.15,5.5 -7.31,10.1 -12.52,13.74 -5.26,3.69 -11.28,6.37 -18.07,8.18 -6.84,1.77 -13.96,2.63 -21.46,2.63 -14.72,0 -27.53,-2.98 -38.34,-8.99z"/>
   <path id="_19" class="fil4" d="M4442.53 1165.88c-5.4,3.13 -12.57,4.7 -21.41,4.7 -25.15,0 -37.67,-14.8 -37.67,-44.41l0 -89.69 -24.67 0 0 -20.71 24.67 0 0 -36.98 22.94 -7.89 0 44.87 36.14 0 0 20.71 -36.14 0 0 85.44c0,10.16 1.63,17.38 4.92,21.73 3.25,4.35 8.65,6.52 16.26,6.52 5.78,0 10.75,-1.67 14.96,-5.06l0 20.77z"/>
   <path id="_20" class="fil4" d="M4575.84 1167.35l-22.99 0 0 -23.7 -0.52 0c-9.99,18.19 -24.72,27.23 -44.12,27.23 -14.3,0 -25.49,-3.99 -33.56,-11.98 -8.07,-7.98 -12.09,-18.59 -12.09,-31.83 0,-28.3 15.77,-44.82 47.32,-49.41l42.97 -6.37c0,-25.77 -9.85,-38.65 -29.54,-38.65 -17.26,0 -32.84,6.22 -46.75,18.65l0 -24.86c14.1,-9.49 30.31,-14.19 48.71,-14.19 33.7,0 50.57,18.84 50.57,56.54l0 98.57zm-22.99 -76.7l-34.56 5.05c-10.65,1.57 -18.69,4.35 -24.09,8.39 -5.4,3.99 -8.12,11.07 -8.12,21.22 0,7.38 2.49,13.44 7.5,18.14 4.97,4.7 11.62,7.03 19.94,7.03 11.38,0 20.8,-4.25 28.21,-12.63 7.45,-8.43 11.13,-19.15 11.13,-32.08l0 -15.1z"/>
   <path id="_21" class="fil4" d="M4735.08 1167.35l-22.95 0 0 -24 -0.57 0c-9.51,18.39 -24.28,27.53 -44.26,27.53 -34.18,0 -51.25,-21.47 -51.25,-64.52l0 -90.59 22.81 0 0 86.75c0,31.98 11.61,47.95 34.75,47.95 11.19,0 20.41,-4.35 27.68,-13.09 7.22,-8.74 10.85,-20.16 10.85,-34.3l0 -87.31 22.95 0 0 151.58z"/>
   <path id="_22" class="fil4" d="M4856.25 1040.33c-4.01,-3.24 -9.8,-4.85 -17.35,-4.85 -9.84,0 -18.02,4.85 -24.62,14.65 -6.55,9.75 -9.84,23.09 -9.84,39.96l0 77.26 -22.99 0 0 -151.58 22.99 0 0 31.23 0.57 0c3.25,-10.67 8.22,-18.95 14.96,-24.96 6.74,-5.97 14.25,-8.95 22.56,-8.95 5.97,0 10.51,0.71 13.71,2.07l0 25.16z"/>
   <path id="_23" class="fil4" d="M4983.83 1167.35l-22.99 0 0 -23.7 -0.53 0c-9.99,18.19 -24.72,27.23 -44.12,27.23 -14.29,0 -25.48,-3.99 -33.56,-11.98 -8.07,-7.98 -12.09,-18.59 -12.09,-31.83 0,-28.3 15.78,-44.82 47.33,-49.41l42.97 -6.37c0,-25.77 -9.85,-38.65 -29.54,-38.65 -17.26,0 -32.83,6.22 -46.75,18.65l0 -24.86c14.1,-9.49 30.31,-14.19 48.71,-14.19 33.7,0 50.57,18.84 50.57,56.54l0 98.57zm-22.99 -76.7l-34.56 5.05c-10.66,1.57 -18.69,4.35 -24.1,8.39 -5.4,3.99 -8.12,11.07 -8.12,21.22 0,7.38 2.48,13.44 7.5,18.14 4.97,4.7 11.61,7.03 19.93,7.03 11.38,0 20.8,-4.25 28.21,-12.63 7.46,-8.43 11.14,-19.15 11.14,-32.08l0 -15.1z"/>
   <path id="_24" class="fil4" d="M5146.16 1167.35l-22.99 0 0 -86.45c0,-32.19 -11.09,-48.25 -33.31,-48.25 -11.48,0 -20.98,4.55 -28.49,13.69 -7.56,9.15 -11.28,20.66 -11.28,34.56l0 86.45 -22.99 0 0 -151.58 22.99 0 0 25.16 0.57 0c10.8,-19.15 26.48,-28.7 47.04,-28.7 15.68,0 27.68,5.35 36,16.06 8.32,10.66 12.47,26.17 12.47,46.38l0 92.66z"/>
   <path id="_25" class="fil4" d="M5255.96 1165.88c-5.4,3.13 -12.57,4.7 -21.41,4.7 -25.15,0 -37.67,-14.8 -37.67,-44.41l0 -89.69 -24.67 0 0 -20.71 24.67 0 0 -36.98 22.94 -7.89 0 44.87 36.14 0 0 20.71 -36.14 0 0 85.44c0,10.16 1.63,17.38 4.92,21.73 3.25,4.35 8.66,6.52 16.26,6.52 5.78,0 10.75,-1.67 14.96,-5.06l0 20.77z"/>
  </g>
 </g>
</svg>
