<?xml version="1.0" encoding="UTF-8"?>
<!DOCTYPE svg PUBLIC "-//W3C//DTD SVG 1.1//EN" "http://www.w3.org/Graphics/SVG/1.1/DTD/svg11.dtd">
<!-- Creator: CorelDRAW -->
<svg xmlns="http://www.w3.org/2000/svg" xml:space="preserve" width="81.1003mm" height="22.8996mm" version="1.1" style="shape-rendering:geometricPrecision; text-rendering:geometricPrecision; image-rendering:optimizeQuality; fill-rule:evenodd; clip-rule:evenodd"
viewBox="0 0 5313.23 1500.25"
 xmlns:xlink="http://www.w3.org/1999/xlink"
 xmlns:xodm="http://www.corel.com/coreldraw/odm/2003">
 <defs>
  <style type="text/css">
   <![CDATA[
    .fil1 {fill:#898121}
    .fil2 {fill:#E5C287}
    .fil0 {fill:#FDA403}
    .fil4 {fill:#606062;fill-rule:nonzero}
    .fil3 {fill:#4B4B4D;fill-rule:nonzero}
   ]]>
  </style>
 </defs>
 <g id="Layer_x0020_1">
  <metadata id="CorelCorpID_0Corel-Layer"/>
  <g id="_1790377510400">
   <g>
    <path class="fil0" d="M890.54 1500.25c335.35,0 609.74,-243.94 609.74,-542.09l0 -327.53 -100.18 75.4c-52.42,39.46 -119.93,55.2 -188.88,54.43l0 117.54c0,183.27 -168.65,333.21 -374.77,333.21l-380.26 0 -289.68 261.34c-6.01,5.42 -12.21,10.18 -18.57,14.31 25.39,8.65 52.92,13.4 81.62,13.4l660.99 0z"/>
    <path class="fil0" d="M289.06 414.49c0,-68.99 63.49,-125.44 141.09,-125.44l406.3 0c31.3,0 61.75,3.46 90.87,9.97 12.13,-15.96 26.66,-30.6 43.8,-43.49l234.9 -176.8c-92.18,-49.92 -200.22,-78.72 -315.46,-78.72l-660.99 0c-126.25,0 -229.56,91.84 -229.56,204.09l0 960.59 289.06 -179.71 0 -570.49z"/>
    <path class="fil0" d="M1300.11 141.39l-172.32 129.71c-15.59,11.74 -17.55,32.68 -4.35,46.53 13.2,13.87 36.76,15.61 52.35,3.87l176.29 -132.69c-16.23,-16.72 -33.59,-32.57 -51.97,-47.43z"/>
    <path class="fil0" d="M1414.28 265.39l-170.05 128c-15.59,11.73 -17.55,32.68 -4.34,46.54 13.19,13.86 36.75,15.6 52.35,3.87l157.01 -118.19c-10.26,-20.77 -21.95,-40.87 -34.96,-60.21z"/>
    <path class="fil0" d="M1485.1 422.02l-124.42 93.65c-15.59,11.74 -17.56,32.69 -4.35,46.54 13.2,13.87 36.75,15.61 52.35,3.87l89.64 -67.47c-2.36,-26.07 -6.81,-51.65 -13.21,-76.59z"/>
   </g>
   <path class="fil1" d="M1005.23 970.68c2.6,-2.11 5.18,-4.26 7.72,-6.47 121.79,-105.46 129.93,-275.56 22.66,-389.63l10.95 -9.49 19.79 18.06c20.58,-17.83 21.02,-47.13 0.96,-65.44 -20.06,-18.31 -53.02,-18.7 -73.61,-0.86l17.28 15.77 -11.05 9.56c-125.45,-97.54 -316.2,-94.52 -437.67,10.66 -1.85,1.61 -3.67,3.22 -5.46,4.85l97.68 89.96c1.89,-1.8 3.83,-3.57 5.84,-5.31 72.17,-62.49 187.66,-61.14 257.96,3.01 70.3,64.16 68.78,166.85 -3.39,229.36 -2.4,2.08 -4.84,4.07 -7.33,6.01l97.66 89.95z"/>
   <path class="fil2" d="M465.51 779.52l7.82 248.64 283.93 16.23 -0.03 -0.02c78.64,6.57 159.53,-12.38 225.63,-57.1l-98.83 -91.02c-71.2,39.48 -166.13,31.07 -227.09,-24.55 -61.34,-56 -68,-141.33 -20.72,-203.68l-98.84 -91.03c-53.67,58.33 -77.68,131.19 -71.83,202.56l-0.03 -0.03z"/>
  </g>
  <g id="_1790377503392">
   <path class="fil3" d="M1785.06 812.56l0 -535.84 189.93 0c190.31,0 285.46,86.99 285.46,261.23 0,83.42 -26.02,150 -77.94,199.87 -51.91,49.88 -121.04,74.75 -207.52,74.75l-189.93 0zm120.8 -437.63l0 339.67 59.82 0c52.29,0 93.24,-15.69 123.08,-47.07 29.72,-31.38 44.64,-74.11 44.64,-128.19 0,-51.02 -14.79,-91.2 -44.25,-120.41 -29.59,-29.34 -70.92,-44.01 -124.23,-44.01l-59.05 0z"/>
   <polygon id="_1" class="fil3" points="2670.77,812.56 2349.34,812.56 2349.34,276.72 2658.4,276.72 2658.4,374.93 2470.14,374.93 2470.14,494.19 2645.39,494.19 2645.39,592.03 2470.14,592.03 2470.14,714.6 2670.77,714.6 "/>
   <polygon id="_2" class="fil3" points="3075.75,812.56 2756.61,812.56 2756.61,276.72 2877.41,276.72 2877.41,714.6 3075.75,714.6 "/>
   <polygon id="_3" class="fil3" points="3268.61,812.56 3147.81,812.56 3147.81,276.72 3268.61,276.72 "/>
   <polygon id="_4" class="fil3" points="3709.42,812.56 3390.29,812.56 3390.29,276.72 3511.08,276.72 3511.08,714.6 3709.42,714.6 "/>
   <path id="_5" class="fil3" d="M3989.01 821.87c-76.78,0 -139.28,-25 -187.63,-74.87 -48.34,-50 -72.45,-115.05 -72.45,-195.28 0,-84.7 24.49,-153.19 73.6,-205.49 49.1,-52.3 114.03,-78.57 195.02,-78.57 76.53,0 138.39,25.12 185.59,75.13 47.19,50.13 70.79,116.2 70.79,198.09 0,84.18 -24.49,152.16 -73.47,203.7 -48.85,51.53 -112.76,77.29 -191.46,77.29zm5.23 -450.25c-42.35,0 -76.02,15.82 -100.89,47.71 -24.88,31.75 -37.38,73.72 -37.38,126.02 0,53.06 12.5,95.03 37.38,126.02 24.87,30.86 57.52,46.3 97.83,46.3 41.71,0 74.62,-15.05 99.11,-45.03 24.36,-30.1 36.61,-71.68 36.61,-124.99 0,-55.62 -11.86,-98.85 -35.46,-129.72 -23.72,-30.86 -56.12,-46.3 -97.19,-46.3z"/>
   <path id="_6" class="fil3" d="M4788.38 812.56l-152.55 0 -156.12 -232.78c-3.07,-4.47 -7.78,-14.41 -14.29,-29.59l-1.78 0 0 262.37 -120.8 0 0 -535.84 120.8 0 0 253.32 1.78 0c3.06,-7.02 8.04,-16.97 15.05,-29.85l147.96 -223.47 143.88 0 -186.86 255.61 202.93 280.23z"/>
   <path id="_7" class="fil3" d="M5310.83 812.56l-131.51 0 -38.14 -119.26 -190.56 0 -37.76 119.26 -130.86 0 195.15 -535.84 143.12 0 190.56 535.84zm-197.32 -211.86l-57.53 -180.11c-4.21,-13.52 -7.27,-29.59 -9.05,-48.21l-2.94 0c-1.27,15.69 -4.34,31.25 -9.31,46.69l-58.29 181.63 137.11 0z"/>
   <polygon class="fil4" points="1881.08,972.75 1803.03,972.75 1803.03,1045.8 1875.23,1045.8 1875.23,1068.07 1803.03,1068.07 1803.03,1161.59 1779.62,1161.59 1779.62,950.38 1881.08,950.38 "/>
   <path id="_1_0" class="fil4" d="M1927.59 972.45c-4.04,0 -7.56,-1.45 -10.41,-4.42 -2.9,-2.92 -4.34,-6.64 -4.34,-11.16 0,-4.52 1.43,-8.29 4.34,-11.26 2.85,-3.01 6.37,-4.52 10.41,-4.52 4.19,0 7.76,1.51 10.71,4.52 2.9,2.97 4.38,6.74 4.38,11.26 0,4.32 -1.47,8 -4.38,11.01 -2.95,3.07 -6.51,4.57 -10.71,4.57zm11.18 189.14l-22.88 0 0 -150.83 22.88 0 0 150.83z"/>
   <path id="_2_1" class="fil4" d="M2103.49 1161.59l-22.88 0 0 -86.02c0,-32.03 -11.03,-48.02 -33.15,-48.02 -11.41,0 -20.88,4.53 -28.35,13.63 -7.52,9.1 -11.22,20.56 -11.22,34.39l0 86.02 -22.88 0 0 -150.83 22.88 0 0 25.04 0.57 0c10.74,-19.06 26.34,-28.56 46.8,-28.56 15.6,0 27.54,5.33 35.82,15.99 8.27,10.61 12.41,26.04 12.41,46.15l0 92.2z"/>
   <path id="_3_2" class="fil4" d="M2268.35 1161.59l-22.88 0 0 -25.64 -0.52 0c-10.6,19.46 -26.97,29.16 -49.08,29.16 -17.89,0 -32.25,-6.73 -42.95,-20.26 -10.74,-13.48 -16.13,-31.88 -16.13,-55.16 0,-24.93 5.96,-44.9 17.84,-59.93 11.9,-15.04 27.73,-22.52 47.52,-22.52 19.6,0 33.86,8.14 42.81,24.43l0.52 0 0 -93.36 22.88 0 0 223.27zm-22.88 -68.17l0 -22.27c0,-12.17 -3.8,-22.47 -11.41,-30.92 -7.61,-8.44 -17.27,-12.67 -28.97,-12.67 -13.93,0 -24.92,5.38 -32.91,16.19 -7.99,10.81 -11.99,25.74 -11.99,44.8 0,17.39 3.85,31.07 11.51,41.18 7.66,10.05 17.98,15.08 30.87,15.08 12.74,0 23.06,-4.87 31.01,-14.58 7.95,-9.7 11.89,-22.02 11.89,-36.8z"/>
   <path id="_4_3" class="fil4" d="M2506.37 1010.76l-65.65 174.96c-11.7,31.27 -28.16,46.86 -49.32,46.86 -5.95,0 -10.9,-0.66 -14.89,-1.91l0 -21.67c4.89,1.76 9.42,2.66 13.51,2.66 11.51,0 20.17,-7.24 25.92,-21.77l11.42 -28.6 -55.75 -150.53 25.35 0 38.62 116.08c0.48,1.46 1.43,5.28 2.9,11.47l0.86 0c0.47,-2.37 1.38,-6.09 2.76,-11.21l40.57 -116.34 23.69 0z"/>
   <path id="_5_4" class="fil4" d="M2590.51 1165.11c-21.08,0 -37.91,-7.04 -50.52,-21.12 -12.56,-14.08 -18.89,-32.78 -18.89,-56.05 0,-25.34 6.56,-45.1 19.65,-59.38 13.13,-14.23 30.82,-21.32 53.13,-21.32 21.26,0 37.86,6.89 49.8,20.76 11.94,13.83 17.89,33.03 17.89,57.57 0,24.08 -6.42,43.34 -19.26,57.82 -12.89,14.48 -30.16,21.72 -51.8,21.72zm1.66 -137.55c-14.65,0 -26.26,5.28 -34.81,15.83 -8.56,10.56 -12.84,25.09 -12.84,43.69 0,17.85 4.32,31.93 12.98,42.23 8.65,10.31 20.21,15.49 34.67,15.49 14.79,0 26.16,-5.08 34.11,-15.19 7.94,-10.1 11.89,-24.48 11.89,-43.13 0,-18.86 -3.95,-33.38 -11.89,-43.59 -7.95,-10.26 -19.31,-15.34 -34.11,-15.34z"/>
   <path id="_6_5" class="fil4" d="M2813.5 1161.59l-22.84 0 0 -23.88 -0.57 0c-9.46,18.3 -24.16,27.4 -44.04,27.4 -34.02,0 -51,-21.36 -51,-64.2l0 -90.14 22.69 0 0 86.32c0,31.83 11.56,47.71 34.58,47.71 11.13,0 20.31,-4.32 27.54,-13.02 7.19,-8.69 10.8,-20.06 10.8,-34.13l0 -86.88 22.84 0 0 150.83z"/>
   <path id="_7_6" class="fil4" d="M2934.07 1035.2c-3.99,-3.22 -9.75,-4.83 -17.26,-4.83 -9.8,0 -17.93,4.83 -24.5,14.58 -6.52,9.7 -9.8,22.98 -9.8,39.77l0 76.87 -22.88 0 0 -150.83 22.88 0 0 31.07 0.58 0c3.23,-10.61 8.18,-18.86 14.88,-24.84 6.71,-5.94 14.18,-8.9 22.45,-8.9 5.94,0 10.46,0.71 13.65,2.06l0 25.04z"/>
   <path id="_8" class="fil4" d="M3107.59 959.48c-4.47,-2.62 -9.52,-3.98 -15.23,-3.98 -15.93,0 -23.93,10.66 -23.93,31.98l0 23.28 33.44 0 0 20.61 -33.44 0 0 130.22 -22.73 0 0 -130.22 -24.4 0 0 -20.61 24.4 0 0 -24.44c0,-15.83 4.33,-28.3 12.94,-37.5 8.65,-9.2 19.45,-13.78 32.34,-13.78 6.99,0 12.51,0.9 16.6,2.67l0 21.77z"/>
   <path id="_9" class="fil4" d="M3228.55 1161.59l-22.88 0 0 -23.58 -0.52 0c-9.95,18.1 -24.59,27.1 -43.9,27.1 -14.22,0 -25.36,-3.97 -33.4,-11.92 -8.03,-7.94 -12.03,-18.5 -12.03,-31.67 0,-28.16 15.69,-44.6 47.09,-49.17l42.76 -6.34c0,-25.64 -9.79,-38.46 -29.39,-38.46 -17.18,0 -32.68,6.18 -46.52,18.55l0 -24.74c14.03,-9.45 30.16,-14.12 48.47,-14.12 33.53,0 50.32,18.75 50.32,56.26l0 98.09zm-22.88 -76.32l-34.38 5.02c-10.61,1.56 -18.61,4.32 -23.98,8.35 -5.37,3.97 -8.08,11.01 -8.08,21.12 0,7.34 2.48,13.38 7.46,18.05 4.95,4.68 11.56,6.99 19.84,6.99 11.32,0 20.7,-4.23 28.07,-12.57 7.42,-8.39 11.08,-19.05 11.08,-31.93l0 -15.03z"/>
   <path id="_10" class="fil4" d="M3383.81 1010.76l-56.89 150.83 -22.4 0 -54.08 -150.83 25.07 0 36.24 109.6c2.71,8.05 4.38,15.04 5.04,21.07l0.52 0c0.96,-7.59 2.43,-14.43 4.47,-20.51l37.91 -110.16 24.12 0z"/>
   <path id="_11" class="fil4" d="M3467.95 1165.11c-21.08,0 -37.91,-7.04 -50.52,-21.12 -12.55,-14.08 -18.88,-32.78 -18.88,-56.05 0,-25.34 6.56,-45.1 19.65,-59.38 13.13,-14.23 30.82,-21.32 53.13,-21.32 21.26,0 37.85,6.89 49.79,20.76 11.94,13.83 17.89,33.03 17.89,57.57 0,24.08 -6.42,43.34 -19.27,57.82 -12.89,14.48 -30.16,21.72 -51.8,21.72zm1.66 -137.55c-14.64,0 -26.25,5.28 -34.81,15.83 -8.56,10.56 -12.84,25.09 -12.84,43.69 0,17.85 4.32,31.93 12.98,42.23 8.66,10.31 20.21,15.49 34.67,15.49 14.8,0 26.17,-5.08 34.11,-15.19 7.94,-10.1 11.88,-24.48 11.88,-43.13 0,-18.86 -3.94,-33.38 -11.88,-43.59 -7.95,-10.26 -19.31,-15.34 -34.11,-15.34z"/>
   <path id="_12" class="fil4" d="M3649.98 1035.2c-4,-3.22 -9.76,-4.83 -17.26,-4.83 -9.8,0 -17.93,4.83 -24.5,14.58 -6.53,9.7 -9.8,22.98 -9.8,39.77l0 76.87 -22.88 0 0 -150.83 22.88 0 0 31.07 0.57 0c3.24,-10.61 8.18,-18.86 14.89,-24.84 6.7,-5.94 14.17,-8.9 22.45,-8.9 5.95,0 10.46,0.71 13.65,2.06l0 25.04z"/>
   <path id="_13" class="fil4" d="M3686.46 972.45c-4.04,0 -7.56,-1.45 -10.41,-4.42 -2.9,-2.92 -4.34,-6.64 -4.34,-11.16 0,-4.52 1.43,-8.29 4.34,-11.26 2.85,-3.01 6.37,-4.52 10.41,-4.52 4.19,0 7.76,1.51 10.71,4.52 2.9,2.97 4.38,6.74 4.38,11.26 0,4.32 -1.47,8 -4.38,11.01 -2.95,3.07 -6.51,4.57 -10.71,4.57zm11.18 189.14l-22.88 0 0 -150.83 22.88 0 0 150.83z"/>
   <path id="_14" class="fil4" d="M3810.08 1160.13c-5.37,3.12 -12.51,4.68 -21.31,4.68 -25.02,0 -37.48,-14.73 -37.48,-44.19l0 -89.24 -24.54 0 0 -20.61 24.54 0 0 -36.8 22.83 -7.85 0 44.65 35.96 0 0 20.61 -35.96 0 0 85.02c0,10.11 1.62,17.3 4.9,21.62 3.23,4.32 8.61,6.49 16.17,6.49 5.75,0 10.7,-1.66 14.89,-5.03l0 20.66z"/>
   <path id="_15" class="fil4" d="M3955.25 1092.21l-100.75 0c0.38,16.79 4.66,29.76 12.85,38.92 8.18,9.1 19.41,13.67 33.72,13.67 16.08,0 30.82,-5.58 44.33,-16.79l0 22.67c-12.56,9.65 -29.16,14.43 -49.76,14.43 -20.17,0 -36,-6.83 -47.51,-20.51 -11.56,-13.73 -17.32,-32.98 -17.32,-57.82 0,-23.48 6.33,-42.58 18.89,-57.36 12.6,-14.78 28.25,-22.17 46.9,-22.17 18.69,0 33.1,6.38 43.33,19.16 10.22,12.72 15.32,30.46 15.32,53.14l0 12.67zm-23.4 -20.46c-0.1,-13.93 -3.29,-24.79 -9.52,-32.58 -6.28,-7.74 -14.98,-11.62 -26.16,-11.62 -10.75,0 -19.93,4.07 -27.44,12.22 -7.52,8.14 -12.18,18.8 -13.94,31.98l77.06 0z"/>
   <path id="_16" class="fil4" d="M4142.46 1035.2c-4,-3.22 -9.76,-4.83 -17.26,-4.83 -9.8,0 -17.93,4.83 -24.5,14.58 -6.53,9.7 -9.8,22.98 -9.8,39.77l0 76.87 -22.88 0 0 -150.83 22.88 0 0 31.07 0.57 0c3.24,-10.61 8.18,-18.86 14.89,-24.84 6.7,-5.94 14.17,-8.9 22.45,-8.9 5.95,0 10.46,0.71 13.65,2.06l0 25.04z"/>
   <path id="_17" class="fil4" d="M4281.92 1092.21l-100.74 0c0.37,16.79 4.66,29.76 12.84,38.92 8.18,9.1 19.41,13.67 33.73,13.67 16.08,0 30.82,-5.58 44.33,-16.79l0 22.67c-12.56,9.65 -29.15,14.43 -49.75,14.43 -20.17,0 -36.01,-6.83 -47.52,-20.51 -11.56,-13.73 -17.32,-32.98 -17.32,-57.82 0,-23.48 6.33,-42.58 18.88,-57.36 12.61,-14.78 28.26,-22.17 46.9,-22.17 18.69,0 33.11,6.38 43.34,19.16 10.22,12.72 15.31,30.46 15.31,53.14l0 12.67zm-23.4 -20.46c-0.09,-13.93 -3.29,-24.79 -9.51,-32.58 -6.28,-7.74 -14.98,-11.62 -26.17,-11.62 -10.74,0 -19.92,4.07 -27.44,12.22 -7.52,8.14 -12.18,18.8 -13.94,31.98l77.06 0z"/>
   <path id="_18" class="fil4" d="M4307.89 1156.16l0 -25.94c12.41,9.71 26.16,14.58 41.1,14.58 20.07,0 30.11,-7.09 30.11,-21.22 0,-4.02 -0.86,-7.44 -2.57,-10.2 -1.76,-2.82 -4.04,-5.28 -6.99,-7.44 -2.9,-2.16 -6.37,-4.12 -10.32,-5.83 -3.95,-1.71 -8.18,-3.52 -12.75,-5.38 -6.32,-2.67 -11.84,-5.33 -16.65,-8.05 -4.76,-2.67 -8.75,-5.73 -11.99,-9.1 -3.18,-3.42 -5.61,-7.24 -7.23,-11.56 -1.62,-4.32 -2.42,-9.4 -2.42,-15.19 0,-7.09 1.52,-13.32 4.56,-18.8 3.09,-5.43 7.19,-10 12.27,-13.67 5.14,-3.67 10.94,-6.49 17.51,-8.35 6.53,-1.86 13.32,-2.76 20.26,-2.76 12.37,0 23.4,2.26 33.16,6.73l0 24.48c-10.46,-7.29 -22.54,-10.91 -36.2,-10.91 -4.27,0 -8.13,0.5 -11.6,1.56 -3.43,1 -6.37,2.46 -8.85,4.32 -2.42,1.86 -4.32,4.12 -5.7,6.69 -1.33,2.61 -2,5.48 -2,8.65 0,3.92 0.67,7.19 2,9.85 1.38,2.66 3.33,5.02 5.94,7.09 2.57,2.06 5.75,3.92 9.47,5.58 3.71,1.66 7.94,3.47 12.7,5.43 6.28,2.57 11.99,5.18 16.98,7.89 4.99,2.72 9.28,5.73 12.84,9.15 3.52,3.37 6.24,7.29 8.14,11.71 1.91,4.42 2.85,9.65 2.85,15.74 0,7.49 -1.57,13.97 -4.66,19.46 -3.14,5.48 -7.28,10.05 -12.46,13.67 -5.23,3.67 -11.23,6.34 -17.98,8.14 -6.81,1.76 -13.89,2.61 -21.36,2.61 -14.65,0 -27.4,-2.97 -38.15,-8.95z"/>
   <path id="_19" class="fil4" d="M4503.81 1160.13c-5.37,3.12 -12.51,4.68 -21.31,4.68 -25.03,0 -37.48,-14.73 -37.48,-44.19l0 -89.24 -24.55 0 0 -20.61 24.55 0 0 -36.8 22.83 -7.85 0 44.65 35.96 0 0 20.61 -35.96 0 0 85.02c0,10.11 1.62,17.3 4.9,21.62 3.23,4.32 8.61,6.49 16.18,6.49 5.75,0 10.7,-1.66 14.88,-5.03l0 20.66z"/>
   <path id="_20" class="fil4" d="M4636.47 1161.59l-22.88 0 0 -23.58 -0.52 0c-9.95,18.1 -24.59,27.1 -43.9,27.1 -14.23,0 -25.36,-3.97 -33.4,-11.92 -8.03,-7.94 -12.03,-18.5 -12.03,-31.67 0,-28.16 15.69,-44.6 47.09,-49.17l42.76 -6.34c0,-25.64 -9.8,-38.46 -29.39,-38.46 -17.18,0 -32.68,6.18 -46.52,18.55l0 -24.74c14.03,-9.45 30.16,-14.12 48.47,-14.12 33.53,0 50.32,18.75 50.32,56.26l0 98.09zm-22.88 -76.32l-34.39 5.02c-10.6,1.56 -18.6,4.32 -23.97,8.35 -5.37,3.97 -8.08,11.01 -8.08,21.12 0,7.34 2.48,13.38 7.46,18.05 4.95,4.68 11.56,6.99 19.84,6.99 11.32,0 20.7,-4.23 28.07,-12.57 7.42,-8.39 11.08,-19.05 11.08,-31.93l0 -15.03z"/>
   <path id="_21" class="fil4" d="M4794.91 1161.59l-22.83 0 0 -23.88 -0.57 0c-9.47,18.3 -24.16,27.4 -44.05,27.4 -34.01,0 -51,-21.36 -51,-64.2l0 -90.14 22.69 0 0 86.32c0,31.83 11.56,47.71 34.58,47.71 11.13,0 20.31,-4.32 27.54,-13.02 7.18,-8.69 10.8,-20.06 10.8,-34.13l0 -86.88 22.83 0 0 150.83z"/>
   <path id="_22" class="fil4" d="M4915.49 1035.2c-3.99,-3.22 -9.75,-4.83 -17.26,-4.83 -9.79,0 -17.93,4.83 -24.5,14.58 -6.52,9.7 -9.79,22.98 -9.79,39.77l0 76.87 -22.88 0 0 -150.83 22.88 0 0 31.07 0.57 0c3.24,-10.61 8.18,-18.86 14.88,-24.84 6.71,-5.94 14.18,-8.9 22.45,-8.9 5.94,0 10.46,0.71 13.65,2.06l0 25.04z"/>
   <path id="_23" class="fil4" d="M5042.44 1161.59l-22.88 0 0 -23.58 -0.52 0c-9.94,18.1 -24.59,27.1 -43.9,27.1 -14.22,0 -25.35,-3.97 -33.39,-11.92 -8.03,-7.94 -12.03,-18.5 -12.03,-31.67 0,-28.16 15.7,-44.6 47.09,-49.17l42.76 -6.34c0,-25.64 -9.8,-38.46 -29.4,-38.46 -17.17,0 -32.67,6.18 -46.52,18.55l0 -24.74c14.03,-9.45 30.16,-14.12 48.47,-14.12 33.53,0 50.32,18.75 50.32,56.26l0 98.09zm-22.88 -76.32l-34.39 5.02c-10.61,1.56 -18.6,4.32 -23.98,8.35 -5.37,3.97 -8.08,11.01 -8.08,21.12 0,7.34 2.47,13.38 7.46,18.05 4.95,4.68 11.56,6.99 19.83,6.99 11.33,0 20.7,-4.23 28.07,-12.57 7.42,-8.39 11.09,-19.05 11.09,-31.93l0 -15.03z"/>
   <path id="_24" class="fil4" d="M5203.97 1161.59l-22.88 0 0 -86.02c0,-32.03 -11.03,-48.02 -33.15,-48.02 -11.42,0 -20.88,4.53 -28.35,13.63 -7.52,9.1 -11.23,20.56 -11.23,34.39l0 86.02 -22.88 0 0 -150.83 22.88 0 0 25.04 0.57 0c10.75,-19.06 26.35,-28.56 46.8,-28.56 15.61,0 27.54,5.33 35.82,15.99 8.27,10.61 12.41,26.04 12.41,46.15l0 92.2z"/>
   <path id="_25" class="fil4" d="M5313.23 1160.13c-5.37,3.12 -12.51,4.68 -21.31,4.68 -25.03,0 -37.48,-14.73 -37.48,-44.19l0 -89.24 -24.55 0 0 -20.61 24.55 0 0 -36.8 22.83 -7.85 0 44.65 35.96 0 0 20.61 -35.96 0 0 85.02c0,10.11 1.62,17.3 4.9,21.62 3.23,4.32 8.62,6.49 16.18,6.49 5.75,0 10.7,-1.66 14.88,-5.03l0 20.66z"/>
  </g>
 </g>
</svg>
